<svg width="320" height="320" viewBox="0 0 320 320" fill="none" xmlns="http://www.w3.org/2000/svg">
  <path d="M76 276C86 210 120 152 178 94" stroke="#728A78" stroke-width="5" stroke-linecap="round"/>
  <path d="M94 248C126 258 146 278 158 304C132 300 108 286 94 248Z" fill="#8FA091" fill-opacity="0.28" stroke="#728A78" stroke-width="3"/>
  <path d="M112 214C150 222 176 242 188 272C154 268 128 254 112 214Z" fill="#A8B6A4" fill-opacity="0.26" stroke="#728A78" stroke-width="3"/>
  <path d="M132 182C170 190 198 212 212 246C176 242 148 228 132 182Z" fill="#8FA091" fill-opacity="0.24" stroke="#728A78" stroke-width="3"/>
  <path d="M154 146C190 152 220 174 234 206C200 204 172 188 154 146Z" fill="#A8B6A4" fill-opacity="0.24" stroke="#728A78" stroke-width="3"/>
  <path d="M174 112C206 116 234 136 250 166C220 166 192 152 174 112Z" fill="#8FA091" fill-opacity="0.22" stroke="#728A78" stroke-width="3"/>
  <path d="M102 234C72 220 48 198 34 168C64 168 90 182 102 234Z" fill="#A8B6A4" fill-opacity="0.22" stroke="#728A78" stroke-width="3"/>
  <path d="M122 196C90 184 62 162 44 132C78 132 104 146 122 196Z" fill="#8FA091" fill-opacity="0.2" stroke="#728A78" stroke-width="3"/>
  <path d="M148 160C114 146 86 122 68 92C102 92 130 108 148 160Z" fill="#A8B6A4" fill-opacity="0.22" stroke="#728A78" stroke-width="3"/>
  <path d="M176 126C140 112 112 86 94 56C130 56 158 72 176 126Z" fill="#8FA091" fill-opacity="0.2" stroke="#728A78" stroke-width="3"/>
  <circle cx="70" cy="279" r="5" fill="#C9B37E" fill-opacity="0.56"/>
  <circle cx="192" cy="86" r="4" fill="#C9B37E" fill-opacity="0.42"/>
</svg>